<?xml version="1.0"?>
<svg xmlns="http://www.w3.org/2000/svg" viewBox="0 0 64 64" width="512px" height="512px"><g><g id="avatar-smartphone-chat_bubbles-communications" data-name="avatar-smartphone-chat bubbles-communications"><circle cx="32" cy="57" r="2" data-original="#000000" class="active-path" data-old_color="#000000" fill="#05366B"/><path d="M61,28H51V5a3.009,3.009,0,0,0-3-3H16a3.009,3.009,0,0,0-3,3v6H3a1,1,0,0,0-1,1V32a1,1,0,0,0,1,1H13V59a3.009,3.009,0,0,0,3,3H48a3.009,3.009,0,0,0,3-3V50H61a1,1,0,0,0,1-1V29A1,1,0,0,0,61,28ZM15,5a1,1,0,0,1,1-1H48a1,1,0,0,1,1,1V8H15ZM8,28v3H4V13H26V26a1,1,0,0,0,.45.83L28.2,28l-1.75,1.17A1,1,0,0,0,26,30v1H22V28a5,5,0,0,0-3.67-4.8A3.965,3.965,0,0,0,19,21V20a4,4,0,0,0-8,0v1a3.965,3.965,0,0,0,.67,2.2A5,5,0,0,0,8,28Zm9-8v1a2,2,0,0,1-4,0V20a2,2,0,0,1,4,0ZM10,31V28a3.009,3.009,0,0,1,3-3h4a3.009,3.009,0,0,1,3,3v3ZM49,59a1,1,0,0,1-1,1H16a1,1,0,0,1-1-1V54H49Zm0-7H15V33H27a1,1,0,0,0,1-1V30.54l2.55-1.71a.99.99,0,0,0,0-1.66L28,25.46V12a1,1,0,0,0-1-1H15V10H49V28H37a1,1,0,0,0-1,1V42.46l-2.55,1.71a.99.99,0,0,0,0,1.66L36,47.54V49a1,1,0,0,0,1,1H49Zm5-4H44V45a3.009,3.009,0,0,1,3-3h4a3.009,3.009,0,0,1,3,3ZM47,38V37a2,2,0,0,1,4,0v1a2,2,0,0,1-4,0ZM60,48H56V45a5,5,0,0,0-3.67-4.8A3.965,3.965,0,0,0,53,38V37a4,4,0,0,0-8,0v1a3.965,3.965,0,0,0,.67,2.2A5,5,0,0,0,42,45v3H38V47a1,1,0,0,0-.45-.83L35.8,45l1.75-1.17A1,1,0,0,0,38,43V30H60Z" data-original="#000000" class="active-path" data-old_color="#000000" fill="#05366B"/></g></g> </svg>
